<?xml version="1.0" encoding="UTF-8" standalone="no"?>
<!-- Created with Inkscape (http://www.inkscape.org/) -->

<svg
   width="297mm"
   height="210mm"
   viewBox="0 0 297 210"
   version="1.1"
   id="svg1"
   xmlns="http://www.w3.org/2000/svg"
   xmlns:svg="http://www.w3.org/2000/svg">
  <defs
     id="defs1" />
  <g
     id="layer1"
     transform="matrix(1.75312,0,0,1.6733248,-114.24383,-165.38668)"
     style="display:inline">
    <g
       id="g2"
       transform="matrix(0,1.0227951,-0.95481201,0,328.92054,55.42254)"
       style="display:inline;fill:#ffffff;fill-opacity:1;stroke:#000000;stroke-opacity:1">
      <g
         id="g4-8-8"
         transform="matrix(1.0348366,0,0,0.99936862,24.623192,22.036449)"
         style="fill:#ffffff;fill-opacity:1;stroke:#000000;stroke-opacity:1">
        <g
           id="g3-8-5"
           transform="matrix(0,-1.3259761,1.439923,0,-123.29045,304.77224)"
           style="fill:#ffffff;fill-opacity:1;stroke:#000000;stroke-opacity:1">
          <path
             style="fill:#ffffff;fill-opacity:1;fill-rule:nonzero;stroke:#000000;stroke-width:3;stroke-linecap:square;stroke-miterlimit:10;stroke-dasharray:none;stroke-opacity:1;paint-order:normal"
             id="path3-2-7"
             d="m -146.0806,153.96867 a 16.193308,17.665426 0 0 1 -16.7053,16.45759 16.193308,17.665426 0 0 1 -15.64406,-17.65526"
             transform="rotate(-90)" />
          <path
             style="fill:#ffffff;fill-opacity:1;fill-rule:nonzero;stroke:#000000;stroke-width:3;stroke-linecap:square;stroke-miterlimit:10;stroke-dasharray:none;stroke-opacity:1;paint-order:normal"
             id="path3-8-4-6"
             d="m -122.98076,-135.24792 a 16.193308,17.665426 0 0 1 -18.04564,5.92408 16.193308,17.665426 0 0 1 -10.96548,-16.71951"
             transform="scale(-1)" />
          <path
             style="fill:#ffffff;fill-opacity:1;fill-rule:nonzero;stroke:#000000;stroke-width:3;stroke-linecap:square;stroke-miterlimit:10;stroke-dasharray:none;stroke-opacity:1;paint-order:normal"
             id="path3-8-5-5-1"
             d="m -85.125649,-132.013 a 19.643707,14.644946 0 0 1 -19.528291,13.43801 19.643707,14.644946 0 0 1 -19.61724,-13.36581"
             transform="scale(-1)" />
          <path
             style="fill:#ffffff;fill-opacity:1;fill-rule:nonzero;stroke:#000000;stroke-width:3;stroke-linecap:square;stroke-miterlimit:10;stroke-dasharray:none;stroke-opacity:1;paint-order:normal"
             id="path3-8-5-1-5-8"
             d="m 178.42303,-57.227924 a 16.277325,17.662912 0 0 1 -8.13866,15.296531 16.277325,17.662912 0 0 1 -16.27733,-10e-7 16.277325,17.662912 0 0 1 -8.13866,-15.29653"
             transform="rotate(90)" />
          <path
             style="fill:#ffffff;fill-opacity:1;fill-rule:nonzero;stroke:#000000;stroke-width:3;stroke-linecap:square;stroke-miterlimit:10;stroke-dasharray:none;stroke-opacity:1;paint-order:normal"
             id="path3-8-5-1-7-1-9"
             d="m -57.209445,-144.96599 a 16.193308,17.665426 0 0 1 -11.256318,16.03071 16.193308,17.665426 0 0 1 -17.685716,-5.96098"
             transform="scale(-1)" />
          <path
             style="fill:#ffffff;fill-opacity:1;fill-rule:nonzero;stroke:#000000;stroke-width:3;stroke-linecap:square;stroke-miterlimit:10;stroke-dasharray:none;stroke-opacity:1;paint-order:normal"
             d="M 57.614642,178.4269 H 152.52143"
             id="path21-7-2" />
        </g>
      </g>
      <path
         style="fill:#ffffff;fill-opacity:1;fill-rule:evenodd;stroke:#000000;stroke-width:4;stroke-linecap:square;stroke-miterlimit:10;stroke-dasharray:none;stroke-opacity:1"
         d="m 142.31638,225.88768 c -17.69795,6.16078 -27.41723,-8.34881 -21.1961,-24.42005"
         id="path42" />
      <path
         style="fill:#ffffff;fill-opacity:1;fill-rule:evenodd;stroke:#000000;stroke-width:4;stroke-linecap:square;stroke-miterlimit:10;stroke-dasharray:none;stroke-opacity:1"
         d="m 140.23203,162.71153 c -17.34585,-7.09183 -15.03181,-24.40187 0.26705,-32.33484"
         id="path42-3" />
    </g>
    <path
       style="fill:#ffffff;fill-opacity:1;fill-rule:evenodd;stroke:#ffffff;stroke-width:15.1181;stroke-linecap:square;stroke-miterlimit:10;stroke-opacity:1"
       d="M 146.5,763.38216 C 116.32886,759.92909 88.150954,745.53178 65.793982,722.14598 47.50566,703.01606 34.826522,678.74054 28.868027,651.44742 27.41351,644.78495 27.021311,638.66832 27.011914,622.5 c -0.01037,-17.84595 0.290454,-21.85939 2.323592,-31 10.932987,-49.15268 45.511718,-89.09335 90.051804,-104.01565 14.17559,-4.74926 21.6234,-6.02986 38.74428,-6.66185 l 16.13158,-0.59546 0.51616,-21.61352 c 0.43194,-18.08679 0.92966,-23.51432 3.05026,-33.26257 7.29446,-33.53217 21.3736,-60.6075 42.61723,-81.95644 15.75864,-15.83676 29.69913,-24.41525 49.65279,-30.55457 8.25936,-2.54123 10.16078,-2.73846 26.40039,-2.73846 16.18819,0 18.15846,0.20275 26.28408,2.70476 28.19257,8.68093 50.49208,26.25956 69.14015,54.50292 7.87677,11.92974 8.95795,13.16506 10.43166,11.91889 0.90426,-0.76464 5.58161,-4.66472 10.39411,-8.66683 4.8125,-4.00212 8.75,-7.47796 8.75,-7.72411 0,-0.24615 -3.19139,-5.47571 -7.09198,-11.62125 l -7.09198,-11.17371 0.64546,-6.52107 C 414.40926,268.37942 480.6183,217.53664 559,217.53664 c 45.27091,0 86.74031,16.24535 116.03608,45.45633 20.23536,20.1768 32.50228,44.82849 35.01964,70.37574 0.68543,6.95599 0.59906,7.38921 -2.27888,11.43065 -4.00751,5.62768 -13.27684,20.68118 -13.27684,21.56175 0,0.85293 18.41041,15.97541 20.35919,16.72323 0.7605,0.29183 1.66801,-0.21285 2.0167,-1.12151 1.97717,-5.15243 16.88056,-25.68398 24.38158,-33.58911 15.9485,-16.80773 34.47548,-28.14514 54.76601,-33.51356 13.81596,-3.65539 32.69809,-3.83 45.97652,-0.42516 49.47832,12.68716 86.8224,58.61929 97.61616,120.065 1.25036,7.11788 2.2414,18.45423 2.60079,29.75 l 0.58066,18.25 h 16.2202 c 24.50156,0 39.85783,3.32692 59.98219,12.99507 31.661,15.21058 59.2002,46.92842 70.3332,81.00493 11.9366,36.53648 9.7154,74.50077 -6.3626,108.74767 -20.4539,43.56787 -60.0305,72.37601 -107.44437,78.20973 -10.47079,1.28831 -817.75242,1.21504 -829.02623,-0.0752 z m 177.31214,-104.94251 11.44158,-4.06036 -3.9389,-12.07743 c -6.72955,-20.63412 -8.1976,-29.13003 -8.17354,-47.30186 0.0176,-13.25347 0.39208,-17.35235 2.18182,-23.87816 8.05822,-29.38212 29.65227,-49.93136 60.79991,-57.85813 7.66975,-1.95188 11.39292,-2.2551 27.37699,-2.22963 16.42999,0.0262 19.74116,0.32352 29.59243,2.65741 6.10084,1.44537 17.04625,4.86132 24.32312,7.59101 l 13.23069,4.96306 1.01085,-2.62278 c 5.10572,-13.24751 7.82978,-20.80321 7.83577,-21.734 0.007,-1.16491 -5.77335,-3.63023 -19.99286,-8.52622 -59.52283,-20.49462 -118.3609,-8.48164 -149.58226,30.54023 -11.39815,14.24593 -18.91508,31.48778 -22.05508,50.58849 -2.06152,12.5403 -1.3008,37.36318 1.57853,51.50872 2.77836,13.64949 10.07988,36.5 11.66299,36.5 0.69651,0 6.41509,-1.82716 12.70796,-4.06035 z m 604.87255,-12.03284 c 6.22342,-3.35126 11.47985,-6.25331 11.68096,-6.44899 C 941.09419,639.24893 929.11483,617.73979 922.01002,607 900.27458,574.14417 871.92965,552.61449 838.81318,543.80698 830.31167,541.54596 826.99504,541.19711 814,541.19711 c -12.95669,0 -16.32242,0.35189 -24.70793,2.58317 -35.004,9.31417 -63.43421,37.11795 -81.7295,79.92867 -7.59441,17.77079 -8.136,15.64889 5.42779,21.26563 6.71234,2.77957 11.97933,4.43523 12.46745,3.9191 0.46485,-0.49153 2.47556,-4.86316 4.46825,-9.71475 9.87379,-24.03959 20.18026,-39.4605 35.15295,-52.59713 17.40402,-15.26981 41.09739,-21.96265 62.44042,-17.63799 34.11644,6.91287 63.60644,32.56112 84.28125,73.30166 2.85963,5.63501 5.28243,10.24751 5.38401,10.25 0.10158,0.002 5.27658,-2.73741 11.5,-6.08866 z"
       id="path1"
       transform="matrix(0.1509214,0,0,0.15811834,65.166007,98.837165)" />
  </g>
</svg>
