<?xml version="1.0" encoding="UTF-8" standalone="no"?>
<!-- Uploaded to: SVG Repo, www.svgrepo.com, Generator: SVG Repo Mixer Tools -->

<svg
   fill="#000000"
   width="800"
   height="800"
   viewBox="0 0 24 24"
   version="1.1"
   id="svg1"
   xmlns="http://www.w3.org/2000/svg"
   xmlns:svg="http://www.w3.org/2000/svg">
  <defs
     id="defs1">
    <style
       id="style1">.cls-1{fill:none;}</style>
  </defs>
  <g
     id="Artwork">
    <path
       d="m 20.14,14.84 a 0.58,0.58 0 0 0 -0.19,0 H 19.9 l -0.25,0.11 v 0 A 8.3,8.3 0 0 1 16.7,15.48 8.51,8.51 0 0 1 8.17,7 8,8 0 0 1 8.56,4.5 0.79,0.79 0 0 0 8.62,4.28 a 1.1,1.1 0 0 0 0,-0.18 1,1 0 0 0 -1,-1 0.86,0.86 0 0 0 -0.36,0.07 v 0 L 7,3.32 a 10,10 0 1 0 14,13.07 l 0.09,-0.19 a 0.75,0.75 0 0 0 0,-0.16 1.1,1.1 0 0 0 0,-0.18 1,1 0 0 0 -0.95,-1.02 z M 12,20.5 A 8.5,8.5 0 0 1 6.83,5.26 9.29,9.29 0 0 0 6.67,7 10,10 0 0 0 19.07,16.71 8.54,8.54 0 0 1 12,20.5 Z"
       id="path1"
       style="fill:#000000;fill-opacity:1" />
    <rect
       class="cls-1"
       height="24"
       width="24"
       id="rect1"
       x="0"
       y="0" />
    <path
       style="fill:#ffffff;fill-opacity:1;fill-rule:evenodd;stroke:#ffffff;stroke-width:21.1948;stroke-linecap:square;stroke-miterlimit:10"
       d="M 361.55343,679.97 C 233.10414,660.33925 136.51755,562.04198 119.76821,433.90245 c -2.4477,-18.72592 -2.0712,-54.94185 0.76468,-73.55439 10.66517,-69.99817 43.5439,-129.27529 97.75123,-176.2359 l 8.565,-7.41998 -0.91444,4.88335 c -6.19469,33.08148 -4.76518,85.32829 3.35571,122.64687 18.56411,85.30914 69.16186,159.2803 142.22544,207.92583 28.08741,18.70051 66.56453,35.81018 100.23918,44.5735 45.20182,11.76307 100.72749,13.56258 146.24252,4.73949 7.75452,-1.50321 14.31644,-2.51578 14.58207,-2.25015 1.16333,1.16333 -21.01103,27.98302 -33.19742,40.15196 -39.6574,39.6006 -88.78026,65.81489 -145.85248,77.83381 -15.1465,3.18972 -21.70931,3.76061 -48.36715,4.20734 -21.67857,0.3633 -34.63605,-0.0628 -43.60912,-1.43418 z"
       id="path2"
       transform="scale(0.03)" />
  </g>
</svg>
